<svg width="68" height="52" viewBox="0 0 68 52" fill="none" xmlns="http://www.w3.org/2000/svg">
<path d="M13.734 23.7907C14.1216 23.7907 14.5023 23.6176 14.7792 23.2854L18.0395 19.2845L21.5766 23.32C22.0888 23.9084 22.961 23.943 23.5147 23.4031C24.0754 22.8631 24.11 21.9494 23.5909 21.3611L17.9633 14.9375L12.6957 21.4026C12.2043 22.0117 12.2666 22.9185 12.8411 23.4446C13.0972 23.6799 13.4156 23.7907 13.734 23.7907Z" fill="#81FF59"/>
<path d="M45.139 23.7907C45.5267 23.7907 45.9074 23.6176 46.1843 23.2854L49.4445 19.2845L52.9816 23.32C53.4938 23.9084 54.366 23.943 54.9198 23.4031C55.4804 22.8631 55.5151 21.9494 54.9959 21.3611L49.3684 14.9375L44.1007 21.4026C43.6093 22.0117 43.6716 22.9185 44.2461 23.4446C44.5022 23.6799 44.8206 23.7907 45.139 23.7907Z" fill="#81FF59"/>
<path d="M54.4559 28.6775C54.4559 28.6775 53.0092 30.3111 49.7282 31.9031C46.6757 33.3844 41.3665 35.1495 33.3786 35.1495C25.8613 35.1495 20.6145 33.3706 17.5342 31.8824C14.2324 30.2834 12.6542 28.6637 12.6127 28.6221C12.0797 28.0545 11.2145 28.0545 10.6746 28.6152C10.1346 29.1759 10.1277 30.0896 10.6607 30.6572C10.9445 30.9617 17.7626 38.0429 33.3717 38.0429C49.9774 38.0429 56.2349 30.9133 56.491 30.6087C56.9963 30.0134 56.9478 29.1067 56.3872 28.5737C55.8265 28.0407 54.9612 28.0822 54.449 28.6706L54.4559 28.6775Z" fill="#81FF59"/>
<path d="M67.1854 20.1913C67.1854 10.8675 61.4333 3.6894 61.191 3.39176L60.9418 3.08719L60.5749 2.9626C60.2219 2.84492 51.7287 0 33.7178 0C15.7068 0 7.21358 2.84492 6.86056 2.9626L6.48677 3.09411L6.23066 3.41252C5.98839 3.71709 0.243164 11.0336 0.243164 20.1983C0.243164 27.7155 2.40282 33.7861 6.6529 38.23C8.44568 40.1058 10.6053 41.6633 13.118 42.9231C12.8134 43.6429 12.6404 44.439 12.6404 45.2765C12.6404 48.4883 15.1115 51.091 18.1641 51.091C20.9537 51.091 23.2517 48.9175 23.6255 46.0933C26.3597 46.5086 29.3223 46.7232 32.5133 46.7232H34.3615C37.8709 46.7232 41.1104 46.474 44.0799 45.9756C44.4053 48.8552 46.731 51.091 49.5621 51.091C52.6147 51.091 55.0858 48.4883 55.0858 45.2765C55.0858 44.3421 54.8713 43.456 54.4975 42.6739C56.8371 41.4625 58.8652 39.9881 60.5749 38.2438C64.9635 33.7653 67.1923 27.6947 67.1923 20.2052L67.1854 20.1913ZM18.1641 46.6401C17.4442 46.6401 16.8628 46.031 16.8628 45.2696C16.8628 44.5082 17.4442 43.899 18.1641 43.899C18.884 43.899 19.4654 44.5151 19.4654 45.2696C19.4654 46.0241 18.884 46.6401 18.1641 46.6401ZM49.5621 46.6401C48.8422 46.6401 48.2608 46.031 48.2608 45.2696C48.2608 44.5082 48.8422 43.899 49.5621 43.899C50.282 43.899 50.8634 44.5151 50.8634 45.2696C50.8634 46.0241 50.282 46.6401 49.5621 46.6401ZM52.5593 40.3965C51.6941 39.8082 50.6696 39.4621 49.5621 39.4621C47.2986 39.4621 45.3536 40.9018 44.5022 42.9507C41.145 43.5876 37.6771 43.8298 34.3615 43.8298H32.5133C29.1562 43.8298 26.0828 43.5876 23.2864 43.1169C22.4696 40.978 20.483 39.4621 18.1641 39.4621C16.9389 39.4621 15.8106 39.8912 14.89 40.5973C12.405 39.4344 10.2938 37.96 8.58412 36.1741C4.86703 32.2909 2.98426 26.9195 2.98426 20.1983C2.98426 13.1171 7.04053 7.04655 8.08574 5.59294C9.90622 5.05995 18.2264 2.89338 33.7108 2.89338C49.1953 2.89338 57.5362 5.06687 59.3428 5.59986C60.3881 7.01194 64.4374 12.9579 64.4374 20.1983C64.4374 31.045 59.3913 37.1294 52.5593 40.3965Z" fill="#81FF59"/>
</svg>
