<svg width="75" height="55" viewBox="0 0 75 55" fill="none" xmlns="http://www.w3.org/2000/svg">
<path d="M15.4913 25.3713C15.9204 25.3713 16.3496 25.1914 16.6541 24.8384L20.2813 20.616L24.2129 24.8799C24.7874 25.5029 25.7496 25.5375 26.3726 24.9699C26.9955 24.3953 27.0302 23.4332 26.4626 22.8102L20.1982 16.0198L14.3353 22.8517C13.7885 23.4955 13.8577 24.4576 14.5014 25.0045C14.7921 25.2537 15.1452 25.3713 15.4982 25.3713H15.4913Z" fill="#0067FF"/>
<path d="M50.4195 25.3713C50.8486 25.3713 51.2778 25.1914 51.5824 24.8384L55.2095 20.616L59.1411 24.8799C59.7157 25.5029 60.6778 25.5375 61.3008 24.9699C61.9238 24.3953 61.9584 23.4332 61.3908 22.8102L55.1264 16.0198L49.2635 22.8517C48.7167 23.4955 48.7859 24.4576 49.4296 25.0045C49.7204 25.2537 50.0734 25.3713 50.4264 25.3713H50.4195Z" fill="#0067FF"/>
<path d="M60.7817 30.5351C60.7194 30.6043 54.4619 37.374 37.3439 37.374C28.9822 37.374 23.147 35.4981 19.7206 33.9199C16.0451 32.2309 14.2869 30.5143 14.2523 30.4797C13.657 29.8844 12.6948 29.8775 12.0926 30.4728C11.4904 31.0681 11.4835 32.0302 12.0788 32.6324C12.3903 32.9508 19.9767 40.4335 37.3439 40.4335C55.8186 40.4335 62.7752 32.9024 63.059 32.577C63.6197 31.9471 63.5712 30.985 62.9413 30.4174C62.3114 29.8567 61.3493 29.9052 60.7817 30.5351Z" fill="#0067FF"/>
<path d="M67.5859 9.18757C61.4461 3.24161 51.6377 0.223633 38.4306 0.223633H36.3748C23.2854 0.223633 13.6085 3.24161 7.60715 9.19449C2.87253 13.8876 0.477539 20.2973 0.477539 28.2437C0.477539 37.9275 6.8665 45.6594 7.13646 45.9778L7.42026 46.31L7.83558 46.4485C8.01555 46.5038 10.1198 47.1753 14.2799 47.8813C14.2799 47.9367 14.273 47.999 14.273 48.0544C14.273 51.4461 17.021 54.2011 20.4197 54.2011C23.41 54.2011 25.895 52.0691 26.4487 49.238C29.7436 49.4526 33.4953 49.5841 37.7177 49.5841C41.9401 49.5841 45.941 49.4387 49.3119 49.2172C49.8519 52.0552 52.3438 54.2011 55.341 54.2011C58.7327 54.2011 61.4877 51.453 61.4877 48.0544C61.4877 47.9782 61.4808 47.9021 61.4738 47.8259C65.4193 47.1407 67.4129 46.5108 67.5859 46.4554L67.9943 46.3239L68.2712 45.9985C68.5411 45.6801 74.9439 38.1006 74.9439 28.2506C74.9439 20.3319 72.4659 13.9222 67.5859 9.18757ZM20.4128 49.4249C19.6167 49.4249 18.9661 48.7812 18.9661 47.9782C18.9661 47.1753 19.6098 46.5315 20.4128 46.5315C21.2157 46.5315 21.8595 47.1753 21.8595 47.9782C21.8595 48.7812 21.2157 49.4249 20.4128 49.4249ZM55.341 49.4249C54.5449 49.4249 53.8943 48.7812 53.8943 47.9782C53.8943 47.1753 54.538 46.5315 55.341 46.5315C56.1439 46.5315 56.7877 47.1753 56.7877 47.9782C56.7877 48.7812 56.1439 49.4249 55.341 49.4249ZM66.2223 43.6728C65.4401 43.8873 63.5712 44.365 60.5809 44.8703C59.5011 43.1052 57.5629 41.9215 55.341 41.9215C52.6206 41.9215 50.3156 43.6935 49.5058 46.1439C46.0932 46.3862 42.1685 46.5384 37.7107 46.5384C33.253 46.5384 29.5844 46.3931 26.2549 46.1647C25.452 43.7004 23.1469 41.9215 20.4128 41.9215C18.1701 41.9215 16.2111 43.1259 15.1382 44.9256C11.9818 44.4065 10.016 43.9081 9.20613 43.6797C8.03632 42.143 3.53012 35.7333 3.53012 28.2506C3.53012 20.768 5.62747 15.4727 9.75988 11.3749C15.1659 6.01039 24.1229 3.29006 36.3748 3.29006H38.4306C53.6935 3.29006 71.8844 7.62321 71.8844 28.2576C71.8844 35.8717 67.3783 42.1845 66.2154 43.6797L66.2223 43.6728Z" fill="#0067FF"/>
</svg>
