<svg width="68" height="52" viewBox="0 0 68 52" fill="none" xmlns="http://www.w3.org/2000/svg">
<path d="M13.5817 23.9211C13.9693 23.9211 14.35 23.748 14.6269 23.4157L17.8871 19.4149L21.4242 23.4504C21.9365 24.0387 22.8086 24.0733 23.3624 23.5334C23.9231 22.9935 23.9577 22.0798 23.4385 21.4914L17.811 15.0679L12.5434 21.533C12.0519 22.1421 12.1142 23.0489 12.6887 23.575C12.9448 23.8103 13.2633 23.9211 13.5817 23.9211Z" fill="#FF4242"/>
<path d="M44.9797 23.9211C45.3674 23.9211 45.7481 23.748 46.025 23.4157L49.2852 19.4149L52.8223 23.4504C53.3345 24.0387 54.2067 24.0733 54.7605 23.5334C55.3212 22.9935 55.3558 22.0798 54.8366 21.4914L49.2091 15.0679L43.9414 21.533C43.45 22.1421 43.5123 23.0489 44.0868 23.575C44.3429 23.8103 44.6613 23.9211 44.9797 23.9211Z" fill="#FF4242"/>
<path d="M54.3036 28.801C54.3036 28.801 52.8569 30.4346 49.5759 32.0267C46.5233 33.508 41.2142 35.2731 33.2262 35.2731C25.709 35.2731 20.4621 33.4941 17.3819 32.0059C14.0801 30.4069 12.5019 28.7872 12.4604 28.7457C11.9274 28.1781 11.0621 28.1781 10.5222 28.7387C9.9823 29.2994 9.97538 30.2131 10.5084 30.7807C10.7922 31.0853 17.6103 38.1664 33.2193 38.1664C49.8251 38.1664 56.0825 31.0368 56.3387 30.7323C56.844 30.137 56.7955 29.2302 56.2348 28.6972C55.6741 28.1642 54.8089 28.2057 54.2967 28.7941L54.3036 28.801Z" fill="#FF4242"/>
<path d="M67.0331 20.3146C67.0331 10.9908 61.2809 3.81269 61.0387 3.51505L60.7895 3.21049L60.4226 3.08589C60.0696 2.96821 51.5763 0.123291 33.5654 0.123291C15.5545 0.123291 7.06123 2.96821 6.70821 3.08589L6.33442 3.21741L6.07831 3.53582C5.83604 3.84039 0.0908203 11.1569 0.0908203 20.3216C0.0908203 27.8388 2.25047 33.9094 6.50055 38.3533C8.29334 40.2291 10.453 41.7865 12.9657 43.0463C12.6611 43.7662 12.488 44.5622 12.488 45.3998C12.488 48.6116 14.9592 51.2143 18.0118 51.2143C20.8013 51.2143 23.0994 49.0408 23.4732 46.2166C26.2074 46.6319 29.17 46.8465 32.361 46.8465H34.2091C37.7186 46.8465 40.958 46.5973 43.9276 46.0989C44.2529 48.9785 46.5787 51.2143 49.4098 51.2143C52.4623 51.2143 54.9335 48.6116 54.9335 45.3998C54.9335 44.4653 54.7189 43.5793 54.3451 42.7972C56.6847 41.5858 58.7129 40.1114 60.4226 38.3671C64.8111 33.8886 67.04 27.818 67.04 20.3285L67.0331 20.3146ZM18.0118 46.7634C17.2919 46.7634 16.7104 46.1543 16.7104 45.3929C16.7104 44.6315 17.2919 44.0223 18.0118 44.0223C18.7317 44.0223 19.3131 44.6384 19.3131 45.3929C19.3131 46.1474 18.7317 46.7634 18.0118 46.7634ZM49.4098 46.7634C48.6899 46.7634 48.1084 46.1543 48.1084 45.3929C48.1084 44.6315 48.6899 44.0223 49.4098 44.0223C50.1296 44.0223 50.7111 44.6384 50.7111 45.3929C50.7111 46.1474 50.1296 46.7634 49.4098 46.7634ZM52.407 40.5198C51.5417 39.9315 50.5173 39.5854 49.4098 39.5854C47.1463 39.5854 45.2012 41.0251 44.3498 43.074C40.9927 43.7109 37.5248 43.9531 34.2091 43.9531H32.361C29.0038 43.9531 25.9305 43.7108 23.134 43.2402C22.3172 41.1013 20.3306 39.5854 18.0118 39.5854C16.7866 39.5854 15.6583 40.0145 14.7377 40.7206C12.2527 39.5577 10.1415 38.0833 8.43178 36.2974C4.71468 32.4142 2.83191 27.0428 2.83191 20.3216C2.83191 13.2404 6.88818 7.16984 7.93339 5.71623C9.75387 5.18324 18.0741 3.01667 33.5585 3.01667C49.0429 3.01667 57.3839 5.19016 59.1905 5.72315C60.2357 7.13523 64.285 13.0812 64.285 20.3216C64.285 31.1683 59.2389 37.2527 52.407 40.5198Z" fill="#FF4242"/>
</svg>
