<svg width="607" height="84" viewBox="0 0 607 84" fill="none" xmlns="http://www.w3.org/2000/svg">
<g opacity="0.1" clip-path="url(#clip0_66_714)">
<path d="M0 64.4691L9.86288 2.59253H32.7898L25.5224 47.7901H62.984L60.3885 64.4691H0Z" fill="white"/>
<path d="M102.955 65.8519C95.6254 65.8519 89.2232 65.0001 83.7479 63.2964C78.2727 61.5927 74.0457 59.1729 71.0795 56.0371C68.1132 52.9013 66.6177 49.2223 66.6177 45.0248C66.6177 39.6667 68.3974 35.0001 71.9446 31.0248C75.4918 27.0495 80.139 23.963 85.8738 21.7778C91.6086 19.5927 97.7142 18.4939 104.166 18.4939C110.618 18.4939 116.117 19.3334 120.826 21.0001C125.523 22.6667 129.132 25.0618 131.641 28.1729C134.15 31.284 135.435 34.9383 135.497 39.1482C135.497 40.4692 135.337 41.8519 135.015 43.2964C134.694 44.7408 134.286 45.9136 133.767 46.8396H87.7401C88.2592 48.568 89.3221 49.963 90.9412 51.0371C92.5603 52.0988 94.5378 52.8766 96.8737 53.3704C99.2097 53.8643 101.818 54.0988 104.697 54.0988C108.961 54.0988 113.188 53.6791 117.366 52.8519C121.543 52.0124 124.88 50.963 127.352 49.7038L131.592 59.4692C129.404 60.7408 126.747 61.8396 123.632 62.7902C120.517 63.7408 117.193 64.4939 113.646 65.0371C110.098 65.5803 106.539 65.8643 102.967 65.8643L102.955 65.8519ZM115.067 38.1976C115.129 36.2346 114.659 34.6174 113.683 33.3087C112.706 32.0124 111.347 31.0495 109.616 30.4198C107.886 29.7902 105.983 29.4692 103.906 29.4692C101.422 29.4692 99.1479 29.8025 97.0715 30.4569C94.9951 31.1235 93.2524 32.1482 91.8311 33.5309C90.4221 34.9137 89.3962 36.4939 88.7535 38.284L115.055 38.1976H115.067Z" fill="white"/>
<path d="M170.265 65.8519C165.308 65.8519 161.143 65.1729 157.757 63.8149C154.383 62.4568 151.948 60.5062 150.44 57.9383C148.944 55.3704 148.45 52.3704 148.969 48.9136L151.478 32.321H139.452L141.442 19.8766H153.468L155.458 8.03709L176.741 4.32104L174.232 19.8766H201.052L199.062 32.321H172.242L170.339 44.0741C170.104 45.8643 170.227 47.3087 170.685 48.4322C171.142 49.5556 171.97 50.4322 173.157 51.0741C174.343 51.7038 175.888 52.0247 177.791 52.0247C180.733 52.0247 183.489 51.4939 186.048 50.4322C188.618 49.3704 191.337 47.7655 194.23 45.642L196.479 57.3951C192.611 60.2717 188.594 62.4075 184.416 63.7902C180.239 65.1729 175.517 65.8643 170.265 65.8643V65.8519Z" fill="white"/>
<path d="M204.785 29.9013C208.245 30.6544 211.385 30.6668 214.215 29.9507C217.045 29.2347 219.406 27.8026 221.309 25.6791C223.213 23.5557 224.597 20.7532 225.462 17.2964C222.632 18.7408 219.814 19.3705 216.983 19.1976C214.153 19.0248 211.867 18.1359 210.112 16.5186C208.356 14.9013 207.467 12.7408 207.467 10.0371C207.467 8.13591 207.973 6.40751 208.987 4.85196C210 3.2964 211.335 2.09887 213.004 1.25936C214.672 0.419859 216.526 0.0124512 218.541 0.0124512C220.79 0.0124512 222.718 0.518624 224.337 1.51862C225.956 2.53097 227.205 3.98776 228.095 5.88899C228.984 7.79023 229.429 9.97541 229.429 12.4569C229.429 17.1853 228.305 21.3334 226.055 24.9013C223.806 28.4692 220.741 30.9878 216.847 32.4569C212.954 33.926 208.703 34.0865 204.08 32.926L204.772 29.9013H204.785Z" fill="white"/>
<path d="M253.753 65.8518C249.143 65.8518 244.706 65.5308 240.466 64.9012C236.227 64.2716 232.346 63.3703 228.824 62.2222C225.301 61.074 222.36 59.7407 219.999 58.2469L225.882 48.5679C227.959 49.8395 230.443 50.9382 233.323 51.9012C236.202 52.8518 239.342 53.5802 242.716 54.0987C246.09 54.6172 249.415 54.8765 252.702 54.8765C255.817 54.8765 258.388 54.7654 260.402 54.5308C262.417 54.2963 263.9 53.9382 264.864 53.4444C265.816 52.9506 266.285 52.3333 266.285 51.5926C266.285 50.7901 265.556 50.1358 264.085 49.6419C262.615 49.1481 260.439 48.7284 257.547 48.395L246.127 47.1851C239.787 46.4938 235.065 45.1975 231.976 43.2963C228.886 41.395 227.341 38.7407 227.341 35.3456C227.341 31.3703 228.75 28.0987 231.58 25.5308C234.41 22.9629 238.081 21.1358 242.605 20.037C247.128 18.9382 252.047 18.395 257.35 18.395C260.983 18.395 264.419 18.6049 267.645 19.037C270.871 19.4691 273.961 20.0987 276.902 20.9382C279.844 21.7777 282.551 22.8518 285.035 24.1728L279.065 33.5061C276.297 32.0123 273.021 30.8271 269.239 29.9629C265.457 29.0987 261.614 28.6666 257.696 28.6666C255.335 28.6666 253.197 28.7777 251.293 29.0123C249.39 29.2469 247.857 29.6296 246.708 30.1851C245.559 30.7284 244.978 31.4074 244.978 32.2098C244.978 32.9629 245.522 33.5185 246.622 33.9012C247.722 34.2716 249.736 34.6296 252.678 34.9876L264.357 36.4567C271.217 37.1481 276.358 38.5555 279.757 40.6913C283.156 42.8271 284.862 45.6172 284.862 49.074C284.862 53.0493 283.527 56.2716 280.833 58.753C278.151 61.2345 274.48 63.0246 269.808 64.1604C265.136 65.2839 259.772 65.8518 253.716 65.8518H253.753Z" fill="white"/>
<path d="M375.222 66.1975C372.281 66.1975 369.784 65.7036 367.745 64.7283C365.693 63.753 364.012 62.4938 362.677 60.9752C361.355 59.4444 360.168 57.6172 359.13 55.4814L356.362 49.432C355.385 47.5925 354.087 46.2222 352.468 45.3209C350.849 44.432 348.946 43.9876 346.758 43.9876H334.473L331.272 64.4691H308.345L318.208 2.59253H369.685C374.592 2.59253 378.769 3.2592 382.23 4.58018C385.691 5.90117 388.336 7.83944 390.153 10.3703C391.969 12.9012 392.884 15.9629 392.884 19.5308C392.884 23.0987 392.044 26.1975 390.375 28.9999C388.706 31.7901 386.321 34.1604 383.231 36.0864C380.141 38.0123 376.471 39.3827 372.207 40.1975V40.2839C373.133 40.5678 373.949 41.111 374.678 41.8765C375.395 42.6543 376.013 43.5555 376.532 44.6049L379.993 51.432C380.45 52.2962 381.044 52.9629 381.773 53.4197C382.49 53.8765 383.429 54.111 384.578 54.111C385.332 54.111 386.21 53.9382 387.223 53.5925C388.237 53.2469 389.028 52.7901 389.596 52.2098L391.759 61.3703C389.856 62.8148 387.347 63.9752 384.232 64.8641C381.118 65.753 378.114 66.1975 375.235 66.1975H375.222ZM357.486 31.2839C359.971 31.2839 362.109 30.9259 363.926 30.1975C365.743 29.4814 367.152 28.4444 368.165 27.0864C369.178 25.7283 369.673 24.1975 369.673 22.4691C369.673 21.0864 369.302 19.9135 368.548 18.9629C367.794 18.0123 366.707 17.2839 365.26 16.7654C363.814 16.2468 362.084 15.9876 360.069 15.9876H338.873L336.537 31.2839H357.474H357.486Z" fill="white"/>
<path d="M415.625 65.8518C411.188 65.8518 407.382 65.432 404.205 64.6049C401.029 63.7654 398.656 62.4814 397.074 60.753C395.492 59.0246 394.701 56.9259 394.701 54.4444C394.701 49.7777 397.272 45.9629 402.401 42.9999C407.53 40.037 414.624 38.111 423.684 37.2468L443.237 35.432C444.213 35.3209 444.992 35.111 445.573 34.8271C446.153 34.5431 446.438 34.1357 446.438 33.6172C446.549 32.8641 446.166 32.1975 445.276 31.5925C444.386 30.9876 443.064 30.5308 441.333 30.2098C439.603 29.8888 437.526 29.7407 435.104 29.7407C431.582 29.7407 427.911 30.111 424.079 30.8641C420.248 31.6172 416.491 32.6666 412.832 34.0246C409.174 35.3826 405.775 37.0123 402.66 38.9135L398.854 28.1975C402.03 26.2345 405.688 24.5308 409.841 23.0493C413.994 21.5802 418.357 20.4567 422.942 19.6789C427.528 18.9012 432.125 18.5061 436.748 18.5061C442.569 18.5061 447.822 19.0863 452.494 20.2345C457.166 21.3826 460.824 23.2592 463.481 25.8518C466.139 28.4444 467.115 31.753 466.423 35.7901L464.087 50.4814C463.914 51.5802 464.149 52.4567 464.779 53.111C465.41 53.7777 466.336 54.0987 467.548 54.0987C468.413 54.0987 469.352 53.9259 470.366 53.5802C471.379 53.2345 472.281 52.8024 473.097 52.2839L475.26 61.4444C473.468 62.8271 471.095 63.9135 468.116 64.6789C465.15 65.4567 461.986 65.8518 458.636 65.8518C453.853 65.8518 450.158 64.9012 447.562 62.9999C444.967 61.0987 443.471 58.4197 443.064 54.9629V54.2715H442.977C441.247 56.753 439.022 58.8394 436.315 60.5431C433.609 62.2468 430.494 63.5555 426.971 64.4691C423.449 65.395 419.679 65.8518 415.638 65.8518H415.625ZM424.277 53.6666C427.973 53.6666 431.31 53.3086 434.313 52.5802C437.316 51.8641 439.665 50.8394 441.37 49.5061C443.076 48.1851 444.04 46.6543 444.262 44.9259L444.349 44.4073L426.527 46.0493C423.239 46.2839 420.668 46.7654 418.827 47.5185C416.985 48.2715 416.058 49.3086 416.058 50.6296C415.996 51.6049 416.676 52.358 418.085 52.8765C419.494 53.395 421.558 53.6543 424.265 53.6543L424.277 53.6666Z" fill="white"/>
<path d="M478.523 64.4691L488.818 0H509.496L499.287 64.4691H478.523Z" fill="white"/>
<path d="M506.208 64.4691L516.504 0H537.181L526.972 64.4691H506.208Z" fill="white"/>
<path d="M556.128 84.0001C552.322 84.0001 548.49 83.6544 544.622 82.963C540.753 82.2717 537.206 81.3334 533.98 80.1482C530.754 78.963 528.072 77.5927 525.934 76.0371L534.413 62.8149C536.316 64.0865 538.528 65.2099 541.037 66.1852C543.546 67.1606 546.167 67.9383 548.91 68.5186C551.654 69.0988 554.287 69.3828 556.82 69.3828C561.146 69.3828 565.027 68.7902 568.463 67.605C571.899 66.4198 574.643 64.7408 576.732 62.5556C578.808 60.3704 580.081 57.8272 580.538 54.9507L581.144 51.4939H581.057C579.154 55.4075 576.052 58.5186 571.751 60.8272C567.45 63.1359 562.679 64.284 557.438 64.284C552.767 64.284 548.787 63.321 545.499 61.3828C542.212 59.4569 539.851 56.8149 538.405 53.4815C536.959 50.1359 536.588 46.3334 537.28 42.0741L540.914 19.8643H561.591L558.39 40.0001C557.982 42.4815 558.118 44.642 558.773 46.4815C559.441 48.321 560.565 49.7655 562.147 50.8025C563.729 51.8396 565.596 52.3581 567.722 52.3581C570.379 52.3581 572.801 51.7778 574.989 50.6297C577.177 49.4815 579.006 47.8766 580.489 45.8396C581.96 43.7902 582.899 41.4198 583.295 38.7038L586.236 19.8643H607L601.203 56.1606C600.338 61.6297 597.891 66.5062 593.85 70.7655C589.808 75.0247 584.555 78.2964 578.066 80.568C571.578 82.8396 564.261 83.9877 556.128 83.9877V84.0001Z" fill="white"/>
</g>
<defs>
<clipPath id="clip0_66_714">
<rect width="607" height="84" fill="white"/>
</clipPath>
</defs>
</svg>
