<svg width="1101" height="218" viewBox="0 0 1101 218" fill="none" xmlns="http://www.w3.org/2000/svg">
<path opacity="0.1" d="M1101 0H0V217H1101V0Z" fill="white"/>
<path d="M760.671 1H750.336V11.3356H760.671V1Z" fill="#060F13"/>
<path d="M750.336 11.3357H740V21.6713H750.336V11.3357Z" fill="#060F13"/>
<path d="M740 21.6646H729.664V32.0002H740V21.6646Z" fill="#060F13"/>
<path d="M740 1H729.664V11.3356H740V1Z" fill="#060F13"/>
<path d="M760.671 21.6646H750.336V32.0002H760.671V21.6646Z" fill="#060F13"/>
<path d="M750.336 32H740V42.3356H750.336V32Z" fill="#060F13"/>
<path d="M740 42.3357H729.664V52.6713H740V42.3357Z" fill="#060F13"/>
<path d="M760.671 42.3357H750.336V52.6713H760.671V42.3357Z" fill="#060F13"/>
<path d="M750.336 52.6643H740V62.9999H750.336V52.6643Z" fill="#060F13"/>
<path d="M740 63H729.664V73.3356H740V63Z" fill="#060F13"/>
<path d="M760.671 63H750.336V73.3356H760.671V63Z" fill="#060F13"/>
<path d="M750.336 73.3357H740V83.6713H750.336V73.3357Z" fill="#060F13"/>
<path d="M740 83.6643H729.664V93.9999H740V83.6643Z" fill="#060F13"/>
<path d="M760.671 83.6643H750.336V93.9999H760.671V83.6643Z" fill="#060F13"/>
<path d="M750.336 94H740V104.336H750.336V94Z" fill="#060F13"/>
<path d="M740 104.336H729.664V114.671H740V104.336Z" fill="#060F13"/>
<path d="M760.671 104.336H750.336V114.671H760.671V104.336Z" fill="#060F13"/>
<path d="M729.671 11.3357H719.336V21.6713H729.671V11.3357Z" fill="#060F13"/>
<path d="M719.336 21.6646H709V32.0002H719.336V21.6646Z" fill="#060F13"/>
<path d="M719.336 1H709V11.3356H719.336V1Z" fill="#060F13"/>
<path d="M729.671 32H719.336V42.3356H729.671V32Z" fill="#060F13"/>
<path d="M719.336 42.3357H709V52.6713H719.336V42.3357Z" fill="#060F13"/>
<path d="M729.671 52.6643H719.336V62.9999H729.671V52.6643Z" fill="#060F13"/>
<path d="M719.336 63H709V73.3356H719.336V63Z" fill="#060F13"/>
<path d="M729.671 73.3357H719.336V83.6713H729.671V73.3357Z" fill="#060F13"/>
<path d="M719.336 83.6643H709V93.9999H719.336V83.6643Z" fill="#060F13"/>
<path d="M729.671 94H719.336V104.336H729.671V94Z" fill="#060F13"/>
<path d="M719.336 104.336H709V114.671H719.336V104.336Z" fill="#060F13"/>
<path d="M750.336 114.664H740V125H750.336V114.664Z" fill="#060F13"/>
<path d="M740 125H729.664V135.336H740V125Z" fill="#060F13"/>
<path d="M760.671 125H750.336V135.336H760.671V125Z" fill="#060F13"/>
<path d="M750.336 135.336H740V145.671H750.336V135.336Z" fill="#060F13"/>
<path d="M740 145.665H729.664V156H740V145.665Z" fill="#060F13"/>
<path d="M760.671 145.665H750.336V156H760.671V145.665Z" fill="#060F13"/>
<path d="M750.336 156H740V166.336H750.336V156Z" fill="#060F13"/>
<path d="M740 166.336H729.664V176.671H740V166.336Z" fill="#060F13"/>
<path d="M760.671 166.336H750.336V176.671H760.671V166.336Z" fill="#060F13"/>
<path d="M750.336 176.664H740V187H750.336V176.664Z" fill="#060F13"/>
<path d="M740 187H729.664V197.336H740V187Z" fill="#060F13"/>
<path d="M760.671 187H750.336V197.336H760.671V187Z" fill="#060F13"/>
<path d="M750.336 197.329H740V207.664H750.336V197.329Z" fill="#060F13"/>
<path d="M740 207.664H729.664V218H740V207.664Z" fill="#060F13"/>
<path d="M760.671 207.664H750.336V218H760.671V207.664Z" fill="#060F13"/>
<path d="M729.671 114.664H719.336V125H729.671V114.664Z" fill="#060F13"/>
<path d="M719.336 125H709V135.336H719.336V125Z" fill="#060F13"/>
<path d="M729.671 135.336H719.336V145.671H729.671V135.336Z" fill="#060F13"/>
<path d="M719.336 145.665H709V156H719.336V145.665Z" fill="#060F13"/>
<path d="M729.671 156H719.336V166.336H729.671V156Z" fill="#060F13"/>
<path d="M719.336 166.336H709V176.671H719.336V166.336Z" fill="#060F13"/>
<path d="M729.671 176.664H719.336V187H729.671V176.664Z" fill="#060F13"/>
<path d="M719.336 187H709V197.336H719.336V187Z" fill="#060F13"/>
<path d="M729.671 197.329H719.336V207.664H729.671V197.329Z" fill="#060F13"/>
<path d="M719.336 207.664H709V218H719.336V207.664Z" fill="#060F13"/>
<path d="M0 33H1101" stroke="#060F13" stroke-width="2" stroke-miterlimit="10"/>
<path d="M0 108L1101 109" stroke="#060F13" stroke-width="2" stroke-miterlimit="10"/>
<path d="M0 183L1101 184" stroke="#060F13" stroke-width="2" stroke-miterlimit="10"/>
</svg>
