<?xml version="1.0" encoding="UTF-8"?>
<svg id="DEF" xmlns="http://www.w3.org/2000/svg" viewBox="0 0 316.2 352.58">
  <defs>
    <style>
      .cls-1 {
        fill: #81ff59;
      }

      .cls-1, .cls-2 {
        stroke-width: 0px;
      }

      .cls-2 {
        fill: #ff4242;
      }
    </style>
  </defs>
  <g>
    <path class="cls-2" d="m32.61,253l7.7-48.64H15.3l2.75-16.95h74.2l-2.66,16.95h-25.1l-7.7,48.64h-24.18Z"/>
    <path class="cls-2" d="m102.23,254.46c-4.7,0-8.73-.45-12.09-1.33-3.36-.88-5.88-2.24-7.56-4.08s-2.52-4.06-2.52-6.69c0-4.95,2.72-8.99,8.15-12.14,5.43-3.14,12.95-5.18,22.53-6.09l20.7-1.92c1.04-.12,1.86-.34,2.47-.64.61-.3.92-.73.92-1.28.12-.79-.29-1.51-1.24-2.15-.95-.64-2.34-1.13-4.17-1.47-1.83-.33-4.03-.5-6.6-.5-3.73,0-7.62.4-11.68,1.19-4.06.79-8.03,1.91-11.91,3.34-3.88,1.44-7.47,3.16-10.76,5.18l-4.03-11.36c3.36-2.08,7.24-3.89,11.63-5.45,4.4-1.56,9.02-2.75,13.88-3.57,4.86-.83,9.72-1.24,14.61-1.24,6.17,0,11.73.61,16.67,1.83,4.95,1.22,8.82,3.21,11.63,5.95,2.81,2.75,3.85,6.26,3.12,10.53l-2.47,15.57c-.18,1.16.06,2.09.73,2.79.67.7,1.65,1.05,2.93,1.05.92,0,1.91-.18,2.98-.55,1.07-.37,2.03-.82,2.88-1.38l2.29,9.71c-1.89,1.46-4.41,2.61-7.56,3.44-3.15.82-6.49,1.24-10.03,1.24-5.07,0-8.98-1.01-11.73-3.02s-4.34-4.86-4.76-8.52v-.73h-.09c-1.83,2.63-4.18,4.84-7.05,6.64-2.87,1.8-6.17,3.19-9.89,4.17-3.73.98-7.73,1.47-12,1.47Zm9.16-12.92c3.91,0,7.45-.38,10.63-1.15,3.17-.76,5.66-1.85,7.47-3.25,1.8-1.4,2.82-3.02,3.07-4.86l.09-.55-18.87,1.74c-3.48.24-6.2.76-8.15,1.56-1.96.79-2.93,1.89-2.93,3.3-.06,1.04.66,1.83,2.15,2.38,1.5.55,3.68.82,6.55.82Z"/>
    <path class="cls-2" d="m168.82,253l10.9-68.33h21.89l-10.81,68.33h-21.98Z"/>
    <path class="cls-2" d="m198.13,253l10.9-68.33h21.89l-10.81,68.33h-21.98Z"/>
    <path class="cls-2" d="m250.98,273.7c-4.03,0-8.09-.37-12.18-1.1-4.09-.73-7.85-1.73-11.27-2.98-3.42-1.25-6.26-2.7-8.52-4.35l8.98-14.02c2.01,1.34,4.35,2.53,7.01,3.57,2.66,1.04,5.43,1.86,8.34,2.47,2.9.61,5.69.92,8.38.92,4.58,0,8.69-.63,12.32-1.88,3.63-1.25,6.55-3.04,8.75-5.36,2.2-2.32,3.54-5.01,4.03-8.06l.64-3.66h-.09c-2.02,4.15-5.3,7.45-9.85,9.89-4.55,2.44-9.6,3.66-15.16,3.66-4.95,0-9.16-1.02-12.64-3.07-3.48-2.04-5.99-4.84-7.51-8.38-1.53-3.54-1.92-7.57-1.19-12.09l3.85-23.54h21.89l-3.39,21.34c-.43,2.62-.29,4.92.41,6.87.7,1.96,1.89,3.48,3.57,4.58s3.65,1.65,5.91,1.65c2.81,0,5.37-.61,7.69-1.83,2.32-1.22,4.26-2.92,5.82-5.08,1.56-2.17,2.55-4.69,2.98-7.56l3.12-19.97h21.98l-6.14,38.47c-.92,5.8-3.51,10.96-7.79,15.48-4.28,4.52-9.85,7.98-16.72,10.4-6.87,2.41-14.61,3.62-23.22,3.62Z"/>
    <path class="cls-2" d="m70.81,333.71c-3.11,0-5.76-.52-7.92-1.56-2.17-1.04-3.96-2.37-5.36-3.98-1.41-1.62-2.66-3.56-3.75-5.82l-2.93-6.41c-1.04-1.96-2.41-3.4-4.12-4.35-1.71-.95-3.73-1.42-6.05-1.42h-13.01l-3.39,21.71H0l10.44-65.59h54.5c5.19,0,9.62.7,13.28,2.11,3.66,1.41,6.46,3.45,8.38,6.14s2.88,5.92,2.88,9.71-.89,7.07-2.66,10.03c-1.77,2.96-4.29,5.46-7.56,7.51-3.27,2.04-7.16,3.5-11.68,4.35v.09c.98.31,1.85.87,2.61,1.7.76.82,1.42,1.79,1.97,2.88l3.66,7.24c.49.92,1.11,1.62,1.88,2.11.76.49,1.75.73,2.98.73.79,0,1.72-.18,2.79-.55,1.07-.37,1.91-.86,2.52-1.47l2.29,9.71c-2.02,1.53-4.67,2.76-7.97,3.71-3.3.95-6.47,1.42-9.53,1.42Zm-18.78-37.01c2.62,0,4.9-.38,6.83-1.15,1.92-.76,3.42-1.86,4.49-3.3,1.07-1.43,1.6-3.07,1.6-4.9,0-1.47-.4-2.7-1.19-3.71-.79-1.01-1.96-1.79-3.48-2.34-1.53-.55-3.36-.82-5.5-.82h-22.44l-2.47,16.21h22.17Z"/>
    <path class="cls-2" d="m113.58,333.34c-4.7,0-8.73-.45-12.09-1.33-3.36-.88-5.88-2.24-7.56-4.08s-2.52-4.06-2.52-6.69c0-4.95,2.72-8.99,8.15-12.14,5.43-3.14,12.95-5.18,22.53-6.09l20.7-1.92c1.04-.12,1.86-.34,2.47-.64.61-.3.92-.73.92-1.28.12-.79-.29-1.51-1.24-2.15-.95-.64-2.34-1.13-4.17-1.47-1.83-.33-4.03-.5-6.6-.5-3.73,0-7.62.4-11.68,1.19-4.06.79-8.03,1.91-11.91,3.34-3.88,1.44-7.47,3.16-10.76,5.18l-4.03-11.36c3.36-2.07,7.24-3.89,11.63-5.45,4.4-1.56,9.02-2.75,13.88-3.57,4.86-.83,9.72-1.24,14.61-1.24,6.17,0,11.73.61,16.67,1.83,4.95,1.22,8.82,3.21,11.63,5.96,2.81,2.75,3.85,6.26,3.12,10.53l-2.47,15.57c-.18,1.16.06,2.09.73,2.79.67.7,1.65,1.05,2.93,1.05.92,0,1.91-.18,2.98-.55,1.07-.37,2.03-.82,2.88-1.38l2.29,9.71c-1.89,1.46-4.41,2.61-7.56,3.44-3.15.82-6.49,1.24-10.03,1.24-5.07,0-8.98-1.01-11.73-3.02s-4.34-4.86-4.76-8.52v-.73h-.09c-1.83,2.63-4.18,4.84-7.05,6.64-2.87,1.8-6.17,3.19-9.89,4.17-3.73.98-7.73,1.47-12,1.47Zm9.16-12.92c3.91,0,7.45-.38,10.63-1.15,3.17-.76,5.66-1.85,7.47-3.25,1.8-1.4,2.82-3.02,3.07-4.86l.09-.55-18.87,1.74c-3.48.24-6.2.76-8.15,1.56-1.96.79-2.93,1.89-2.93,3.3-.06,1.04.66,1.83,2.15,2.38,1.5.55,3.68.82,6.55.82Z"/>
    <path class="cls-2" d="m180.18,331.88l10.9-68.33h21.89l-10.81,68.33h-21.98Z"/>
    <path class="cls-2" d="m209.49,331.88l10.9-68.33h21.89l-10.81,68.33h-21.98Z"/>
    <path class="cls-2" d="m262.34,352.58c-4.03,0-8.09-.37-12.18-1.1-4.09-.73-7.85-1.73-11.27-2.98-3.42-1.25-6.26-2.7-8.52-4.35l8.98-14.02c2.01,1.34,4.35,2.53,7.01,3.57,2.66,1.04,5.43,1.86,8.34,2.47,2.9.61,5.69.92,8.38.92,4.58,0,8.69-.63,12.32-1.88,3.63-1.25,6.55-3.04,8.75-5.36,2.2-2.32,3.54-5.01,4.03-8.06l.64-3.66h-.09c-2.02,4.15-5.3,7.45-9.85,9.89-4.55,2.44-9.6,3.66-15.16,3.66-4.95,0-9.16-1.02-12.64-3.07-3.48-2.04-5.99-4.84-7.51-8.38-1.53-3.54-1.92-7.57-1.19-12.09l3.85-23.54h21.89l-3.39,21.34c-.43,2.62-.29,4.92.41,6.87.7,1.96,1.89,3.48,3.57,4.58s3.65,1.65,5.91,1.65c2.81,0,5.37-.61,7.69-1.83,2.32-1.22,4.26-2.92,5.82-5.08,1.56-2.17,2.55-4.69,2.98-7.56l3.12-19.97h21.98l-6.14,38.47c-.92,5.8-3.51,10.96-7.79,15.48-4.28,4.52-9.85,7.98-16.72,10.4-6.87,2.41-14.61,3.62-23.22,3.62Z"/>
  </g>
  <g>
    <path class="cls-1" d="m101.2,64.43c1.1,0,2.2-.46,2.97-1.37l9.29-10.82,10.08,10.93c1.47,1.59,3.94,1.69,5.53.22,1.59-1.47,1.69-3.94.22-5.53l-16.05-17.4-15.02,17.5c-1.41,1.64-1.22,4.11.42,5.52.74.63,1.65.94,2.55.94Z"/>
    <path class="cls-1" d="m190.69,64.43c1.1,0,2.2-.46,2.97-1.37l9.29-10.82,10.08,10.93c1.47,1.59,3.94,1.69,5.53.22,1.59-1.47,1.69-3.94.22-5.53l-16.05-17.4-15.02,17.5c-1.41,1.64-1.22,4.11.42,5.52.74.63,1.65.94,2.55.94Z"/>
    <path class="cls-1" d="m217.25,77.64s-4.12,4.42-13.47,8.74c-8.69,4.01-23.83,8.8-46.6,8.8-21.43,0-36.38-4.81-45.15-8.85-9.41-4.33-13.91-8.72-14.02-8.82-1.52-1.53-3.99-1.54-5.53-.03-1.54,1.52-1.55,4-.04,5.54.81.82,20.24,19.99,64.73,19.99,47.33,0,65.16-19.3,65.89-20.13,1.44-1.6,1.3-4.06-.3-5.5-1.6-1.45-4.06-1.32-5.52.26Z"/>
    <path class="cls-1" d="m253.53,54.68c0-25.25-16.39-44.66-17.09-45.48l-.71-.83-1.04-.34c-1.01-.33-25.21-8.02-76.55-8.02s-75.54,7.7-76.55,8.02l-1.07.35-.72.86c-.7.83-17.06,20.63-17.06,45.45,0,20.35,6.15,36.78,18.27,48.81,5.11,5.07,11.26,9.3,18.42,12.7-.87,1.95-1.36,4.11-1.36,6.38,0,8.69,7.05,15.74,15.74,15.74,7.94,0,14.49-5.89,15.57-13.53,7.8,1.13,16.24,1.71,25.34,1.71h5.26c10,0,19.24-.68,27.7-2.02.94,7.8,7.56,13.85,15.62,13.85,8.69,0,15.74-7.05,15.74-15.74,0-2.54-.61-4.93-1.68-7.05,6.66-3.27,12.45-7.27,17.32-12,12.51-12.12,18.85-28.55,18.85-48.84ZM113.81,126.27c-2.05,0-3.7-1.66-3.7-3.7s1.66-3.7,3.7-3.7,3.7,1.66,3.7,3.7-1.66,3.7-3.7,3.7Zm89.49,0c-2.05,0-3.7-1.66-3.7-3.7s1.66-3.7,3.7-3.7,3.7,1.66,3.7,3.7-1.66,3.7-3.7,3.7Zm8.55-16.91c-2.46-1.6-5.4-2.54-8.55-2.54-6.45,0-11.99,3.89-14.42,9.45-9.56,1.73-19.45,2.38-28.9,2.38h-5.26c-9.56,0-18.33-.65-26.3-1.94-2.32-5.79-7.98-9.89-14.61-9.89-3.5,0-6.72,1.15-9.33,3.08-7.09-3.15-13.09-7.14-17.97-11.98-10.59-10.51-15.96-25.06-15.96-43.25,0-19.18,11.56-35.61,14.54-39.53,5.19-1.45,28.9-7.32,73.03-7.32s67.91,5.89,73.06,7.33c2.98,3.83,14.51,19.93,14.51,39.52,0,29.36-14.37,45.83-33.85,54.68Z"/>
  </g>
</svg>