<?xml version="1.0" encoding="UTF-8"?>
<svg id="DEF" xmlns="http://www.w3.org/2000/svg" viewBox="0 0 209.54 64.24">
  <defs>
    <style>
      .cls-1 {
        fill: #81ff59;
      }

      .cls-1, .cls-2 {
        stroke-width: 0px;
      }

      .cls-2 {
        fill: #ff4242;
      }
    </style>
  </defs>
  <g>
    <path class="cls-2" d="m93.68,26.09l2.95-18.64h-9.58l1.05-6.49h28.43l-1.02,6.49h-9.62l-2.95,18.64h-9.27Z"/>
    <path class="cls-2" d="m120.35,26.65c-1.8,0-3.35-.17-4.63-.51-1.29-.34-2.25-.86-2.9-1.56-.64-.7-.96-1.56-.96-2.56,0-1.9,1.04-3.45,3.12-4.65,2.08-1.21,4.96-1.98,8.63-2.33l7.93-.74c.4-.05.71-.13.95-.25.23-.12.35-.28.35-.49.05-.3-.11-.58-.47-.83-.36-.25-.9-.43-1.6-.56-.7-.13-1.54-.19-2.53-.19-1.43,0-2.92.15-4.48.46-1.56.3-3.08.73-4.56,1.28-1.49.55-2.86,1.21-4.12,1.98l-1.54-4.35c1.29-.8,2.77-1.49,4.46-2.09s3.46-1.05,5.32-1.37c1.86-.32,3.73-.47,5.6-.47,2.36,0,4.49.23,6.39.7,1.9.47,3.38,1.23,4.46,2.28s1.47,2.4,1.19,4.04l-.95,5.97c-.07.45.02.8.28,1.07s.63.4,1.12.4c.35,0,.73-.07,1.14-.21.41-.14.78-.32,1.11-.53l.88,3.72c-.73.56-1.69,1-2.9,1.32-1.21.32-2.49.47-3.84.47-1.94,0-3.44-.39-4.49-1.16s-1.66-1.86-1.83-3.26v-.28h-.04c-.7,1.01-1.6,1.85-2.7,2.54-1.1.69-2.36,1.22-3.79,1.6-1.43.37-2.96.56-4.6.56Zm3.51-4.95c1.5,0,2.85-.15,4.07-.44,1.22-.29,2.17-.71,2.86-1.25.69-.54,1.08-1.16,1.18-1.86l.04-.21-7.23.67c-1.33.09-2.38.29-3.12.6-.75.3-1.12.73-1.12,1.26-.02.4.25.7.82.91.57.21,1.41.32,2.51.32Z"/>
    <path class="cls-2" d="m145.87,26.09L150.05-.1h8.39l-4.14,26.18h-8.42Z"/>
    <path class="cls-2" d="m157.1,26.09L161.28-.1h8.39l-4.14,26.18h-8.42Z"/>
    <path class="cls-2" d="m177.35,34.02c-1.54,0-3.1-.14-4.67-.42-1.57-.28-3.01-.66-4.32-1.14s-2.4-1.04-3.26-1.67l3.44-5.37c.77.51,1.67.97,2.68,1.37,1.02.4,2.08.71,3.19.95,1.11.23,2.18.35,3.21.35,1.75,0,3.33-.24,4.72-.72,1.39-.48,2.51-1.16,3.35-2.05.84-.89,1.36-1.92,1.54-3.09l.25-1.4h-.04c-.77,1.59-2.03,2.85-3.77,3.79-1.74.94-3.68,1.4-5.81,1.4-1.9,0-3.51-.39-4.84-1.18-1.33-.78-2.29-1.85-2.88-3.21-.58-1.36-.74-2.9-.46-4.63l1.47-9.02h8.39l-1.3,8.18c-.16,1.01-.11,1.88.16,2.63.27.75.73,1.33,1.37,1.75.64.42,1.4.63,2.26.63,1.08,0,2.06-.23,2.95-.7.89-.47,1.63-1.12,2.23-1.95.6-.83.98-1.8,1.14-2.9l1.19-7.65h8.42l-2.35,14.74c-.35,2.22-1.35,4.2-2.98,5.93-1.64,1.73-3.77,3.06-6.41,3.98-2.63.92-5.6,1.39-8.9,1.39Z"/>
    <path class="cls-2" d="m112.67,57.01c-1.19,0-2.21-.2-3.04-.6-.83-.4-1.52-.91-2.05-1.53-.54-.62-1.02-1.36-1.44-2.23l-1.12-2.46c-.4-.75-.92-1.3-1.58-1.67-.66-.36-1.43-.54-2.32-.54h-4.98l-1.3,8.32h-9.3l4-25.13h20.88c1.99,0,3.69.27,5.09.81,1.4.54,2.47,1.32,3.21,2.35s1.11,2.27,1.11,3.72-.34,2.71-1.02,3.84c-.68,1.14-1.64,2.09-2.9,2.88-1.25.78-2.74,1.34-4.47,1.67v.04c.37.12.71.33,1,.65.29.32.54.68.75,1.11l1.4,2.77c.19.35.43.62.72.81.29.19.67.28,1.14.28.3,0,.66-.07,1.07-.21.41-.14.73-.33.96-.56l.88,3.72c-.77.58-1.79,1.06-3.05,1.42s-2.48.54-3.65.54Zm-7.2-14.18c1.01,0,1.88-.15,2.62-.44.74-.29,1.31-.71,1.72-1.26.41-.55.61-1.18.61-1.88,0-.56-.15-1.04-.46-1.42-.3-.39-.75-.68-1.33-.9-.59-.21-1.29-.32-2.11-.32h-8.6l-.95,6.21h8.49Z"/>
    <path class="cls-2" d="m129.06,56.87c-1.8,0-3.35-.17-4.63-.51-1.29-.34-2.25-.86-2.9-1.56-.64-.7-.96-1.56-.96-2.56,0-1.9,1.04-3.45,3.12-4.65,2.08-1.21,4.96-1.98,8.63-2.33l7.93-.74c.4-.05.71-.13.95-.25.23-.12.35-.28.35-.49.05-.3-.11-.58-.47-.83-.36-.25-.9-.43-1.6-.56-.7-.13-1.54-.19-2.53-.19-1.43,0-2.92.15-4.48.46-1.56.3-3.08.73-4.56,1.28-1.49.55-2.86,1.21-4.12,1.98l-1.54-4.35c1.29-.8,2.77-1.49,4.46-2.09s3.46-1.05,5.32-1.37c1.86-.32,3.73-.47,5.6-.47,2.36,0,4.49.23,6.39.7,1.9.47,3.38,1.23,4.46,2.28s1.47,2.4,1.19,4.04l-.95,5.97c-.07.45.02.8.28,1.07s.63.4,1.12.4c.35,0,.73-.07,1.14-.21.41-.14.78-.32,1.11-.53l.88,3.72c-.73.56-1.69,1-2.9,1.32-1.21.32-2.49.47-3.84.47-1.94,0-3.44-.39-4.49-1.16s-1.66-1.86-1.83-3.26v-.28h-.04c-.7,1.01-1.6,1.85-2.7,2.54-1.1.69-2.36,1.22-3.79,1.6-1.43.37-2.96.56-4.6.56Zm3.51-4.95c1.5,0,2.85-.15,4.07-.44,1.22-.29,2.17-.71,2.86-1.25.69-.54,1.08-1.16,1.18-1.86l.04-.21-7.23.67c-1.33.09-2.38.29-3.12.6-.75.3-1.12.73-1.12,1.26-.02.4.25.7.82.91.57.21,1.41.32,2.51.32Z"/>
    <path class="cls-2" d="m154.58,56.31l4.18-26.18h8.39l-4.14,26.18h-8.42Z"/>
    <path class="cls-2" d="m165.81,56.31l4.18-26.18h8.39l-4.14,26.18h-8.42Z"/>
    <path class="cls-2" d="m186.06,64.24c-1.54,0-3.1-.14-4.67-.42-1.57-.28-3.01-.66-4.32-1.14s-2.4-1.04-3.26-1.67l3.44-5.37c.77.51,1.67.97,2.68,1.37,1.02.4,2.08.71,3.19.95,1.11.23,2.18.35,3.21.35,1.75,0,3.33-.24,4.72-.72,1.39-.48,2.51-1.16,3.35-2.05.84-.89,1.36-1.92,1.54-3.09l.25-1.4h-.04c-.77,1.59-2.03,2.85-3.77,3.79-1.74.94-3.68,1.4-5.81,1.4-1.9,0-3.51-.39-4.84-1.18-1.33-.78-2.29-1.85-2.88-3.21-.58-1.36-.74-2.9-.46-4.63l1.47-9.02h8.39l-1.3,8.18c-.16,1.01-.11,1.88.16,2.63.27.75.73,1.33,1.37,1.75.64.42,1.4.63,2.26.63,1.08,0,2.06-.23,2.95-.7.89-.47,1.63-1.12,2.23-1.95.6-.83.98-1.8,1.14-2.9l1.19-7.65h8.42l-2.35,14.74c-.35,2.22-1.35,4.2-2.98,5.93-1.64,1.73-3.77,3.06-6.41,3.98-2.63.92-5.6,1.39-8.9,1.39Z"/>
  </g>
  <g>
    <path class="cls-1" d="m13.96,24.1c.4,0,.8-.17,1.08-.5l3.37-3.93,3.66,3.97c.53.58,1.43.61,2.01.08.58-.53.61-1.43.08-2.01l-5.82-6.31-5.45,6.35c-.51.6-.44,1.49.15,2,.27.23.6.34.92.34Z"/>
    <path class="cls-1" d="m46.44,24.1c.4,0,.8-.17,1.08-.5l3.37-3.93,3.66,3.97c.53.58,1.43.61,2.01.08.58-.53.61-1.43.08-2.01l-5.82-6.31-5.45,6.35c-.51.6-.44,1.49.15,2,.27.23.6.34.92.34Z"/>
    <path class="cls-1" d="m56.08,28.9s-1.49,1.6-4.89,3.17c-3.15,1.46-8.65,3.19-16.91,3.19-7.78,0-13.2-1.75-16.39-3.21-3.42-1.57-5.05-3.16-5.09-3.2-.55-.55-1.45-.56-2.01,0-.56.55-.56,1.45-.01,2.01.29.3,7.35,7.25,23.49,7.25,17.18,0,23.65-7.01,23.91-7.3.52-.58.47-1.47-.11-2-.58-.52-1.48-.48-2,.1Z"/>
    <path class="cls-1" d="m69.24,20.56c0-9.16-5.95-16.21-6.2-16.5l-.26-.3-.38-.12c-.36-.12-9.15-2.91-27.78-2.91C15.99.72,7.21,3.51,6.84,3.63l-.39.13-.26.31c-.25.3-6.19,7.49-6.19,16.49,0,7.39,2.23,13.35,6.63,17.71,1.85,1.84,4.09,3.38,6.69,4.61-.31.71-.49,1.49-.49,2.31,0,3.16,2.56,5.71,5.71,5.71,2.88,0,5.26-2.14,5.65-4.91,2.83.41,5.89.62,9.2.62h1.91c3.63,0,6.98-.25,10.05-.73.34,2.83,2.75,5.03,5.67,5.03,3.16,0,5.71-2.56,5.71-5.71,0-.92-.22-1.79-.61-2.56,2.42-1.19,4.52-2.64,6.29-4.35,4.54-4.4,6.84-10.36,6.84-17.72Zm-50.71,25.98c-.74,0-1.34-.6-1.34-1.34s.6-1.34,1.34-1.34,1.34.6,1.34,1.34-.6,1.34-1.34,1.34Zm32.48,0c-.74,0-1.34-.6-1.34-1.34s.6-1.34,1.34-1.34,1.34.6,1.34,1.34-.6,1.34-1.34,1.34Zm3.1-6.14c-.89-.58-1.96-.92-3.1-.92-2.34,0-4.35,1.41-5.23,3.43-3.47.63-7.06.86-10.49.86h-1.91c-3.47,0-6.65-.24-9.55-.7-.84-2.1-2.9-3.59-5.3-3.59-1.27,0-2.44.42-3.39,1.12-2.57-1.14-4.75-2.59-6.52-4.35-3.84-3.81-5.79-9.09-5.79-15.7,0-6.96,4.19-12.92,5.28-14.35,1.88-.53,10.49-2.66,26.5-2.66s24.64,2.14,26.51,2.66c1.08,1.39,5.27,7.23,5.27,14.34,0,10.65-5.22,16.63-12.29,19.84Z"/>
  </g>
</svg>